<svg xmlns="http://www.w3.org/2000/svg" xmlns:xlink="http://www.w3.org/1999/xlink" width="40" height="40" viewBox="0 0 160 160" version="1.1">
<defs>
<linearGradient id="linear0" gradientUnits="userSpaceOnUse" x1="511.004547" y1="839.504883" x2="509.754791" y2="355.739716" gradientTransform="matrix(0.15625,0,0,0.15625,0,0)">
<stop offset="0" style="stop-color:rgb(53.72549%,58.039216%,88.235294%);stop-opacity:1;"></stop>
<stop offset="1" style="stop-color:rgb(69.411765%,36.470588%,83.529412%);stop-opacity:1;"></stop>
</linearGradient>
<linearGradient id="linear1" gradientUnits="userSpaceOnUse" x1="512.28009" y1="773.730164" x2="507.655823" y2="316.038849" gradientTransform="matrix(0.15625,0,0,0.15625,0,0)">
<stop offset="0" style="stop-color:rgb(53.72549%,58.039216%,88.235294%);stop-opacity:1;"></stop>
<stop offset="1" style="stop-color:rgb(69.411765%,36.470588%,83.529412%);stop-opacity:1;"></stop>
</linearGradient>
<linearGradient id="linear2" gradientUnits="userSpaceOnUse" x1="515.25116" y1="378.51944" x2="515.215332" y2="183.499222" gradientTransform="matrix(0.15625,0,0,0.15625,0,0)">
<stop offset="0" style="stop-color:rgb(69.411765%,36.470588%,83.529412%);stop-opacity:1;"></stop>
<stop offset="1" style="stop-color:rgb(35.686275%,13.333333%,52.941176%);stop-opacity:1;"></stop>
</linearGradient>
</defs>
<g id="surface1">
<path style=" stroke:none;fill-rule:nonzero;fill:url(#linear0);" d="M 79.890625 28.367188 C 80.667969 29.429688 81.628906 31.195312 82.34375 32.367188 L 88.328125 42.355469 L 95.589844 54.5 L 97.425781 57.566406 C 97.582031 57.828125 98.238281 58.871094 98.320312 59.074219 C 98.839844 59.773438 99.640625 61.207031 100.117188 62.003906 L 103.332031 67.402344 C 107.257812 73.917969 111.136719 80.464844 114.964844 87.039062 L 129.382812 111.445312 C 133.238281 117.90625 137.355469 124.65625 141.019531 131.207031 L 18.785156 131.175781 C 19.320312 130.15625 20.179688 128.839844 20.800781 127.828125 C 21.988281 125.890625 23.164062 123.945312 24.328125 121.992188 L 37.273438 100.316406 C 38.480469 98.316406 39.636719 96.261719 40.835938 94.25 L 63.867188 55.46875 L 76.015625 34.972656 C 77.195312 33.023438 78.636719 30.148438 79.890625 28.367188 Z M 69.675781 59.3125 C 66.886719 64.296875 63.714844 69.28125 60.789062 74.199219 L 48.097656 95.917969 L 35.640625 116.894531 C 34.222656 119.28125 32.671875 121.675781 31.292969 124.066406 C 33.691406 123.9375 37.066406 124.050781 39.5625 124.046875 L 56.441406 124.035156 L 106.1875 123.980469 L 121.175781 123.976562 L 125.6875 124.003906 C 126.5625 124.011719 127.730469 124.066406 128.574219 124 C 127.882812 122.746094 127.023438 121.382812 126.285156 120.136719 L 121.242188 111.621094 L 100.425781 76.394531 C 97.351562 71.214844 94.199219 66.078125 91.191406 60.855469 C 90.710938 60.023438 90.144531 59.246094 89.730469 58.371094 C 86.386719 53.351562 83.324219 47.363281 79.964844 42.28125 C 78.910156 43.789062 77.96875 45.546875 77.015625 47.136719 C 75.160156 50.167969 73.328125 53.207031 71.515625 56.261719 C 71.28125 56.652344 69.808594 59.203125 69.675781 59.3125 Z M 69.675781 59.3125 "></path>
<path style=" stroke:none;fill-rule:nonzero;fill:url(#linear1);" d="M 79.917969 49.113281 C 80.273438 49.339844 94.957031 74.210938 96.648438 76.949219 C 102.296875 86.109375 108.332031 96.734375 113.863281 106.066406 L 122.574219 120.625 C 121.703125 120.703125 120.011719 120.636719 119.074219 120.636719 L 112.398438 120.636719 L 95.128906 120.621094 L 37.535156 120.617188 C 38.621094 118.707031 39.769531 116.828125 40.84375 114.90625 C 41.082031 114.480469 41.324219 114.054688 41.609375 113.65625 C 42.304688 113.488281 43.65625 113.527344 44.40625 113.527344 L 49.101562 113.558594 C 51.609375 113.585938 54.238281 113.554688 56.761719 113.554688 L 100.507812 113.519531 L 110.210938 113.515625 C 107.902344 109.886719 105.621094 105.753906 103.375 102.039062 L 80.03125 63.058594 C 78.953125 64.476562 77.574219 67.023438 76.617188 68.648438 L 71.679688 76.9375 C 65.214844 88.03125 58.675781 99.078125 52.0625 110.078125 C 49.300781 110.09375 46.542969 110.09375 43.78125 110.074219 L 67.445312 70.03125 L 75.324219 56.855469 C 76.863281 54.273438 78.316406 51.664062 79.917969 49.113281 Z M 79.917969 49.113281 "></path>
<path style=" stroke:none;fill-rule:nonzero;fill:rgb(49.411765%,27.058825%,60.784316%);fill-opacity:1;" d="M 79.945312 69.816406 C 80.394531 70.410156 81.585938 72.6875 82.085938 73.496094 C 84.496094 77.386719 86.867188 81.300781 89.199219 85.242188 L 98.820312 101.15625 C 100.5625 104.039062 102.605469 107.207031 104.171875 110.160156 L 80.386719 110.164062 C 72.332031 110.148438 64.101562 110.066406 56.050781 110.179688 Z M 68.109375 103.292969 C 72.097656 103.394531 76.472656 103.308594 80.488281 103.3125 L 87.992188 103.320312 C 89.121094 103.320312 90.867188 103.273438 91.964844 103.34375 C 89.039062 98.546875 86.160156 93.722656 83.328125 88.875 C 82.804688 88.003906 80.308594 83.726562 79.898438 83.332031 C 78.898438 84.882812 78.0625 86.441406 77.128906 88.027344 L 72.914062 95.050781 L 69.832031 100.214844 C 69.351562 101.027344 68.460938 102.449219 68.109375 103.292969 Z M 68.109375 103.292969 "></path>
<path style=" stroke:none;fill-rule:nonzero;fill:url(#linear2);" d="M 79.890625 28.367188 C 80.667969 29.429688 81.628906 31.195312 82.34375 32.367188 L 88.328125 42.355469 L 95.589844 54.5 L 97.425781 57.566406 C 97.582031 57.828125 98.238281 58.871094 98.320312 59.074219 L 98.234375 59.136719 C 98.117188 58.992188 98.070312 58.953125 97.933594 58.828125 C 97.519531 58.828125 97.277344 59.160156 97.09375 59.148438 C 96.53125 59.113281 95.644531 58.753906 95.09375 58.644531 C 93.972656 58.421875 93.113281 58.320312 91.96875 58.453125 C 91.78125 58.460938 91.597656 58.417969 91.410156 58.453125 C 90.964844 58.539062 90.5625 58.839844 90.132812 58.585938 C 90.066406 58.257812 89.585938 57.335938 89.234375 57.308594 C 89.425781 57.636719 89.722656 57.992188 89.730469 58.371094 C 86.386719 53.351562 83.324219 47.363281 79.964844 42.28125 C 78.910156 43.789062 77.96875 45.546875 77.015625 47.136719 C 75.160156 50.167969 73.328125 53.207031 71.515625 56.261719 C 71.28125 56.652344 69.808594 59.203125 69.675781 59.3125 C 69.597656 58.753906 70.492188 57.894531 70.714844 57.230469 L 70.632812 57.1875 L 70.371094 57.378906 C 70.203125 57.382812 70.089844 57.21875 69.921875 57.074219 C 69.5625 57.003906 68.859375 56.839844 68.488281 56.917969 C 67.578125 57.113281 63.960938 58.515625 63.304688 58.089844 C 63.253906 57.929688 63.191406 57.808594 63.109375 57.664062 C 63.339844 56.910156 63.613281 56.621094 63.941406 55.941406 C 64.042969 55.738281 63.964844 55.695312 63.867188 55.46875 L 76.015625 34.972656 C 77.195312 33.023438 78.636719 30.148438 79.890625 28.367188 Z M 79.890625 28.367188 "></path>
</g>
</svg>